<?xml version="1.0" encoding="iso-8859-1"?>
<!-- Generator: Adobe Illustrator 19.0.0, SVG Export Plug-In . SVG Version: 6.00 Build 0)  -->
<svg version="1.1" id="Capa_1" xmlns="http://www.w3.org/2000/svg" xmlns:xlink="http://www.w3.org/1999/xlink" x="0px" y="0px"
	 viewBox="0 0 512 512" style="enable-background:new 0 0 512 512;" xml:space="preserve">
<g>
	<path style="fill:#A3A2A2;" d="M422,244.937v-33.471c0-5.678,1.665-11.176,4.814-15.902l3.273-4.909
		c2.576-3.863,8.253-3.863,10.828,0.001l3.271,4.907c3.14,4.71,4.815,10.244,4.815,15.905v33.469L422,244.937L422,244.937z"/>
	<path style="fill:#A3A2A2;" d="M372,244.937v-33.471c0-5.678,1.665-11.176,4.814-15.902l3.273-4.909
		c2.576-3.863,8.253-3.863,10.828,0.001l3.271,4.907c3.14,4.71,4.815,10.244,4.815,15.905v33.469L372,244.937L372,244.937z"/>
</g>
<g>
	<path style="fill:#8E8787;" d="M440.285,195.564l1.951-2.926l-1.321-1.982c-2.575-3.864-8.252-3.864-10.828-0.001l-3.273,4.909
		c-3.149,4.727-4.814,10.225-4.814,15.902v33.471h13.471v-33.471C435.471,205.788,437.135,200.29,440.285,195.564z"/>
	<path style="fill:#8E8787;" d="M390.285,195.564l1.951-2.926l-1.321-1.982c-2.575-3.864-8.252-3.864-10.828-0.001l-3.273,4.909
		c-3.149,4.727-4.814,10.225-4.814,15.902v33.471h13.471v-33.471C385.471,205.788,387.135,200.29,390.285,195.564z"/>
</g>
<path style="fill:#4D5642;" d="M410.5,371.937c-9.098,0-16.5-7.402-16.5-16.5v-23.5h33v23.5
	C427,364.535,419.598,371.937,410.5,371.937z"/>
<path style="fill:#A3A2A2;" d="M342.5,476.421v-60.404v-94.08H314v74.199v69.407v34.055c0,2.948,2.39,5.338,5.338,5.338h17.824
	c2.948,0,5.338-2.39,5.338-5.338v-16.765L342.5,476.421z"/>
<path style="fill:#8E8787;" d="M327.471,499.598v-34.055v-69.407v-74.199H314v74.199v69.407v34.055c0,2.948,2.39,5.338,5.338,5.338
	h13.471C329.861,504.937,327.471,502.547,327.471,499.598z"/>
<path style="fill:#4D5642;" d="M287,332.937V99.843l9.549,1.884c22.118,4.364,38.171,23.891,38.171,46.431v44.354
	c0,28.355,22.435,51.425,50.011,51.425H472.5v89H287z"/>
<path style="fill:#343F27;" d="M311,258.699V107.166c-4.398-2.542-9.254-4.414-14.451-5.439L287,99.843v185.141v47.953h24h161.5
	v-47.953H337.285C322.768,284.984,311,273.216,311,258.699z"/>
<path style="fill:#29331C;" d="M354.753,332.937v-19.874c0-4.48,3.646-8.126,8.126-8.126h71.995c4.48,0,8.126,3.646,8.126,8.126
	v19.874H354.753z"/>
<path style="fill:#A3A2A2;" d="M480.696,355.937c-4.803,0-8.696-3.893-8.696-8.696v-98.079c0-17.49,3.022-34.673,8.981-51.068
	l0.708-1.947c2.312-6.362,11.309-6.362,13.622,0l0.708,1.947c5.959,16.396,8.981,33.578,8.981,51.068v98.079
	c0,4.802-3.893,8.695-8.695,8.695h-15.609V355.937z"/>
<path style="fill:#4D5642;" d="M281.68,454.278l4.705-6.406c0.408-1.222,0.615-2.471,0.615-3.713v-68.075l125.488,87.532
	c1.574,1.098,2.512,2.896,2.512,4.815v28.208c0,4.114-4.121,6.952-7.965,5.485L281.68,454.278z"/>
<polygon style="fill:#F04B4D;" points="366,486.461 391,496.003 391,448.627 366,431.188 "/>
<g>
	<path style="fill:#A3A2A2;" d="M90,244.937v-33.471c0-5.678-1.665-11.176-4.814-15.902l-3.273-4.909
		c-2.576-3.863-8.253-3.863-10.828,0.001l-3.271,4.907c-3.14,4.71-4.815,10.244-4.815,15.905v33.469L90,244.937L90,244.937z"/>
	<path style="fill:#A3A2A2;" d="M140,244.937v-33.471c0-5.678-1.665-11.176-4.814-15.902l-3.273-4.909
		c-2.576-3.863-8.253-3.863-10.828,0.001l-3.271,4.907c-3.14,4.71-4.815,10.244-4.815,15.905v33.469L140,244.937L140,244.937z"/>
</g>
<g>
	<path style="fill:#8E8787;" d="M81.286,195.563l1.95-2.925l-1.322-1.983c-2.576-3.863-8.253-3.863-10.828,0.001l-3.271,4.907
		c-3.14,4.71-4.815,10.244-4.815,15.905v33.469h13.471v-33.469C76.471,205.807,78.146,200.273,81.286,195.563z"/>
	<path style="fill:#8E8787;" d="M131.286,195.563l1.95-2.925l-1.322-1.983c-2.576-3.863-8.253-3.863-10.828,0.001l-3.271,4.907
		c-3.14,4.71-4.815,10.244-4.815,15.905v33.469h13.471v-33.469C126.471,205.807,128.146,200.273,131.286,195.563z"/>
</g>
<path style="fill:#4D5642;" d="M101.5,371.937c9.098,0,16.5-7.402,16.5-16.5v-23.5H85v23.5C85,364.535,92.402,371.937,101.5,371.937
	z"/>
<g>
	<path style="fill:#3E4933;" d="M407.471,355.437v-23.5H394v23.5c0,9.098,7.402,16.5,16.5,16.5c2.4,0,4.676-0.527,6.735-1.453
		C411.489,367.901,407.471,362.134,407.471,355.437z"/>
	<path style="fill:#3E4933;" d="M98.471,355.437v-23.5H85v23.5c0,9.098,7.402,16.5,16.5,16.5c2.4,0,4.676-0.527,6.735-1.453
		C102.489,367.901,98.471,362.134,98.471,355.437z"/>
</g>
<path style="fill:#A3A2A2;" d="M169.5,476.421v-60.404v-94.08H198v74.199v69.407v34.055c0,2.948-2.39,5.338-5.338,5.338h-17.824
	c-2.948,0-5.338-2.39-5.338-5.338v-16.765V476.421z"/>
<path style="fill:#8E8787;" d="M182.97,499.599v-16.765v-6.413v-60.404v-94.08H169.5v94.08v60.404v6.413v16.765
	c0,2.948,2.39,5.338,5.338,5.338h13.471C185.36,504.937,182.97,502.547,182.97,499.599z"/>
<path style="fill:#4D5642;" d="M225,332.937V99.843l-9.549,1.884c-22.118,4.364-38.171,23.891-38.171,46.431v44.354
	c0,28.355-22.435,51.425-50.011,51.425H39.5v89H225z"/>
<path style="fill:#343F27;" d="M215.451,101.727c-5.593,1.104-10.795,3.179-15.451,6.025v150.947
	c0,14.517-11.768,26.285-26.285,26.285H39.5v47.953H200h25v-47.953V99.843L215.451,101.727z"/>
<path style="fill:#29331C;" d="M157.247,332.937v-19.874c0-4.48-3.646-8.126-8.126-8.126H77.126c-4.48,0-8.126,3.646-8.126,8.126
	v19.874H157.247z"/>
<path style="fill:#A3A2A2;" d="M31.304,355.937c4.803,0,8.696-3.893,8.696-8.696v-98.079c0-17.49-3.022-34.673-8.981-51.068
	l-0.708-1.947c-2.312-6.362-11.309-6.362-13.622,0l-0.708,1.947C10.022,214.49,7,231.672,7,249.162v98.079
	c0,4.802,3.893,8.695,8.695,8.695h15.609V355.937z"/>
<path style="fill:#4D5642;" d="M230.32,454.278l-4.705-6.406c-0.408-1.222-0.615-2.471-0.615-3.713v-68.075L99.512,463.615
	C97.938,464.713,97,466.511,97,468.43v28.208c0,4.114,4.121,6.952,7.965,5.485L230.32,454.278z"/>
<polygon style="fill:#F04B4D;" points="146,486.461 121,496.003 121,448.627 146,431.188 "/>
<g>
	<path style="fill:#343F27;" d="M225.615,447.871c-0.408-1.222-0.615-2.471-0.615-3.713v-68.075l-25,17.438v50.638
		c0,7.182,2.135,13.87,5.792,19.48l24.528-9.362L225.615,447.871z"/>
	<path style="fill:#343F27;" d="M287,376.083v68.075c0,1.242-0.207,2.491-0.615,3.713l-4.705,6.406l23.725,9.055
		c3.536-5.546,5.595-12.123,5.595-19.174v-51.334L287,376.083z"/>
</g>
<path style="fill:#3E4933;" d="M274.697,32.277l-9.764-17.639c-3.722-6.724-13.343-6.854-17.245-0.232l-9.965,16.909
	C228.091,47.661,223,66.329,223,85.301v358.858c0,7.057,5.721,12.778,12.778,12.778H246h19h10.222
	c7.057,0,12.778-5.721,12.778-12.778V83.777C288,65.807,283.4,47.998,274.697,32.277z"/>
<path style="fill:#2C351F;" d="M255.5,444.159V85.301c0-18.972,5.091-37.64,14.723-53.986l2.032-3.449l-7.322-13.228
	c-3.722-6.724-13.343-6.854-17.245-0.232l-9.965,16.909C228.091,47.661,223,66.329,223,85.301v358.858
	c0,7.057,5.721,12.778,12.778,12.778H246h19h3.278C261.221,456.937,255.5,451.216,255.5,444.159z"/>
<g>
	<rect x="223" y="321.94" style="fill:#F04B4D;" width="65" height="26.381"/>
	<rect x="223" y="376.08" style="fill:#F04B4D;" width="65" height="26.381"/>
</g>
<path style="fill:#4D5642;" d="M255.5,504.937c-5.79,0-10.5-4.71-10.5-10.5v-57c0-5.79,4.71-10.5,10.5-10.5
	c5.79,0,10.5,4.71,10.5,10.5v57C266,500.227,261.29,504.937,255.5,504.937z"/>
<g>
	<path style="fill:#8E8787;" d="M485.471,347.241v-98.079c0-17.49,3.022-34.673,8.981-51.068l0.708-1.947
		c0.021-0.059,0.053-0.108,0.075-0.166c-2.413-6.186-11.255-6.137-13.546,0.166l-0.708,1.947
		C475.022,214.49,472,231.672,472,249.162v98.079c0,4.803,3.893,8.696,8.696,8.696h13.471
		C489.364,355.937,485.471,352.044,485.471,347.241z"/>
	<path style="fill:#8E8787;" d="M20.471,347.242v-98.079c0-17.49,3.022-34.673,8.981-51.068l0.708-1.947
		c0.021-0.059,0.053-0.108,0.076-0.166c-2.413-6.186-11.255-6.137-13.546,0.166l-0.708,1.947C10.022,214.49,7,231.672,7,249.162
		v98.079c0,4.802,3.893,8.695,8.695,8.695h13.471C24.364,355.937,20.471,352.044,20.471,347.242z"/>
</g>
<path style="fill:#3E4933;" d="M258.471,494.437v-57c0-3.228,1.466-6.117,3.765-8.044c-1.825-1.53-4.173-2.456-6.735-2.456
	c-5.79,0-10.5,4.71-10.5,10.5v57c0,5.79,4.71,10.5,10.5,10.5c2.562,0,4.911-0.925,6.735-2.456
	C259.937,500.554,258.471,497.664,258.471,494.437z"/>
<path style="fill:#70B7E5;" d="M248.363,192.937c-2.41,0-4.363-1.953-4.363-4.363V101.83c0-1.646,0.279-3.267,0.829-4.816
	l5.435-15.317c1.749-4.93,8.722-4.93,10.471,0l5.435,15.315c0.549,1.547,0.83,3.177,0.83,4.819v86.743
	c0,2.41-1.953,4.363-4.363,4.363L248.363,192.937L248.363,192.937z"/>
<path style="fill:#48ADE5;" d="M266.17,97.011l-5.435-15.314c-1.75-4.93-8.722-4.93-10.471,0l-2.945,8.299
	c1.275,0.571,2.36,1.635,2.916,3.202l5.435,15.315c0.549,1.547,0.83,3.177,0.83,4.819v79.605h6.137c2.41,0,4.363-1.954,4.363-4.363
	V101.83C267,100.188,266.719,98.558,266.17,97.011z"/>
<path d="M500.795,190.979c-2.023-5.056-6.849-8.323-12.295-8.323s-10.272,3.268-12.295,8.325
	c-5.914,14.784-9.5,30.195-10.724,45.956H456v-25.471c0-7.065-2.071-13.907-5.991-19.786l-4.297-6.446
	c-2.282-3.422-6.1-5.464-10.212-5.464s-7.931,2.042-10.212,5.465l-4.297,6.445c-3.919,5.879-5.99,12.721-5.99,19.786v25.471h-9
	v-25.471c0-7.065-2.071-13.907-5.991-19.786l-4.297-6.446c-2.282-3.422-6.1-5.464-10.212-5.464s-7.931,2.042-10.212,5.465
	l-4.297,6.445c-3.919,5.879-5.99,12.721-5.99,19.786v20.5c-13.814-7.4-23.28-22.302-23.28-39.454v-44.354
	c0-27.348-20.363-50.066-46.72-53.787V83.777c0-19.153-4.903-38.135-14.179-54.892L269.009,7.547
	c-2.555-4.615-7.229-7.412-12.504-7.483c-5.28-0.049-10.022,2.601-12.7,7.146l-12.111,20.552C221.426,45.183,216,65.079,216,85.301
	v9.208c-26.053,4.141-45.72,26.69-45.72,53.648v44.354c0,17.152-9.466,32.054-23.28,39.454v-20.5c0-7.065-2.071-13.907-5.991-19.786
	l-4.297-6.446c-2.282-3.422-6.1-5.464-10.212-5.464s-7.931,2.042-10.212,5.465l-4.297,6.445c-3.919,5.879-5.99,12.721-5.99,19.786
	v25.471h-9v-25.471c0-7.065-2.071-13.907-5.991-19.786l-4.297-6.446c-2.282-3.422-6.1-5.464-10.212-5.464s-7.931,2.042-10.212,5.465
	l-4.297,6.445c-3.919,5.879-5.99,12.721-5.99,19.786v25.471h-9.481c-1.224-15.761-4.81-31.172-10.724-45.958
	c-2.023-5.056-6.849-8.323-12.295-8.323s-10.272,3.268-12.295,8.325C3.77,209.568,0,229.143,0,249.162v98.079
	c0,8.654,7.041,15.695,15.696,15.695h15.608c8.655,0,15.696-7.041,15.696-15.695v-7.305h31v15.5c0,12.958,10.542,23.5,23.5,23.5
	s23.5-10.542,23.5-23.5v-15.5h38.5v71.619l-67.958,46.297c-3.424,2.18-5.541,6.023-5.541,10.092v30.018
	c0,3.936,1.935,7.617,5.176,9.85c2.023,1.394,4.394,2.109,6.784,2.109c1.438,0,2.883-0.259,4.264-0.786l57.276-21.861v9.95
	c0,8.25,5.369,14.713,12.223,14.713h18.055c6.854,0,12.223-6.463,12.223-14.713v-26.171l22.411-8.554
	c2.28,0.919,4.763,1.438,7.368,1.438H238v30.5c0,9.649,7.851,17.5,17.5,17.5c9.649,0,17.5-7.851,17.5-17.5v-30.5h2.222
	c2.79,0,5.443-0.588,7.853-1.635L307,471.434v25.79c0,8.25,5.369,14.713,12.223,14.713h18.055c6.854,0,12.223-6.463,12.223-14.713
	v-9.568l56.276,21.479c1.381,0.527,2.826,0.786,4.264,0.786c2.39,0,4.76-0.716,6.784-2.109c3.241-2.232,5.176-5.914,5.176-9.85
	v-30.018c0-4.051-2.099-7.879-5.497-10.063L349.5,411.145v-71.208H387v15.5c0,12.958,10.542,23.5,23.5,23.5s23.5-10.542,23.5-23.5
	v-15.5h31v7.305c0,8.654,7.041,15.695,15.696,15.695h15.608c8.655,0,15.696-7.041,15.696-15.695v-98.079
	C512,229.144,508.23,209.568,500.795,190.979z M32,347.242c0,0.384-0.312,0.695-0.696,0.695H15.696
	c-0.384,0-0.696-0.312-0.696-0.695v-98.079c0-16.574,2.857-32.812,8.5-48.335c5.643,15.523,8.5,31.761,8.5,48.335V347.242z
	 M121,211.466c0-4.094,1.201-8.059,3.471-11.466l2.029-3.043l2.028,3.043c2.271,3.407,3.472,7.372,3.472,11.466v25.196
	c-1.555,0.176-3.132,0.274-4.731,0.274H121V211.466z M71,211.466c0-4.094,1.201-8.059,3.471-11.466l2.029-3.043L78.528,200
	c2.271,3.407,3.472,7.372,3.472,11.466v25.471H71V211.466z M110,355.437c0,4.687-3.813,8.5-8.5,8.5s-8.5-3.813-8.5-8.5v-15.5h17
	V355.437z M149.247,324.937H77v-11.874c0-0.069,0.057-0.126,0.126-0.126h71.995c0.069,0,0.126,0.057,0.126,0.126L149.247,324.937
	L149.247,324.937z M149.121,297.937H77.126c-8.34,0-15.126,6.785-15.126,15.126v11.874H47.5v-73h79.769
	c31.987,0,58.011-26.658,58.011-59.425v-44.354c0-18.689,13.056-34.445,30.72-38.38v215.16h-51.753v-11.874
	C164.247,304.722,157.461,297.937,149.121,297.937z M216,339.937v35.853l-10,6.813v-42.666H216z M191,339.937v52.885l-12.5,8.516
	v-61.4H191V339.937z M115,489.73l-10,3.817v-23.988l10-6.813V489.73z M139,480.57l-9,3.435v-31.478l9-6.131V480.57z M191,496.937
	h-12.5V482.79c0-0.41-0.042-0.81-0.105-1.202l12.605-4.81V496.937z M154,474.845v-36.987c0-0.538-0.059-1.061-0.167-1.567
	L216,393.94v50.219c0,2.311,0.419,4.52,1.15,6.583L154,474.845z M430,211.466c0-4.094,1.201-8.059,3.471-11.466l2.029-3.043
	l2.028,3.043c2.271,3.407,3.472,7.372,3.472,11.466v25.471h-11V211.466z M380,211.466c0-4.094,1.201-8.059,3.471-11.466l2.029-3.043
	l2.028,3.043c2.271,3.407,3.472,7.372,3.472,11.466v25.471h-6.269c-1.599,0-3.177-0.098-4.731-0.274V211.466z M258,494.437
	c0,1.379-1.122,2.5-2.5,2.5s-2.5-1.121-2.5-2.5v-57c0-1.379,1.122-2.5,2.5-2.5c1.378,0,2.5,1.121,2.5,2.5V494.437z M280,444.159
	c0,2.635-2.143,4.778-4.778,4.778H273v-11.5c0-9.649-7.851-17.5-17.5-17.5s-17.5,7.851-17.5,17.5v11.5h-2.222
	c-2.635,0-4.778-2.144-4.778-4.778v-32.841h49V444.159z M280,396.318h-49v-10.381h49V396.318z M280,370.937h-49v-15.619h49V370.937z
	 M280,340.318h-49v-10.381h49V340.318z M334.5,482.79v14.146H322V477.16l12.55,4.79C334.52,482.226,334.5,482.506,334.5,482.79z
	 M398,463.264l9,6.278v24.006l-9-3.435V463.264z M374,446.523l9,6.278v31.586l-9-3.436V446.523z M359.192,436.194
	c-0.122,0.536-0.192,1.091-0.192,1.664v37.369l-65.027-24.82c0.657-1.967,1.027-4.063,1.027-6.248v-52.741L359.192,436.194z
	 M295,373.129v-33.192h12V381.5L295,373.129z M322,391.963v-52.026h12.5v60.745L322,391.963z M419,355.437
	c0,4.687-3.813,8.5-8.5,8.5s-8.5-3.813-8.5-8.5v-15.5h17V355.437z M435,324.937h-72.247v-11.874c0-0.069,0.057-0.126,0.126-0.126
	h71.995c0.069,0,0.126,0.057,0.126,0.126V324.937z M464.5,324.937H450v-11.874c0-8.354-6.772-15.126-15.126-15.126h-71.995
	c-8.354,0-15.126,6.772-15.126,15.126v11.874H295v-45.734c0-4.142-3.358-7.5-7.5-7.5l0,0c-4.142,0-7.5,3.358-7.5,7.5v35.734h-49
	V85.301c0-17.545,4.708-34.809,13.616-49.925l11.681-19.821l11.401,20.596C275.767,50.727,280,67.116,280,83.777v146.625
	c0,4.142,3.358,7.5,7.5,7.5l0,0c4.142,0,7.5-3.358,7.5-7.5V109.573c18.051,3.562,31.72,19.52,31.72,38.585v44.354
	c0,32.767,26.024,59.425,58.011,59.425H464.5V324.937z M497,347.242c0,0.384-0.312,0.695-0.696,0.695h-15.608
	c-0.384,0-0.696-0.312-0.696-0.695v-98.079c0-16.574,2.857-32.812,8.5-48.335c5.643,15.523,8.5,31.761,8.5,48.335L497,347.242
	L497,347.242z"/>
<path d="M200.5,258.937c4.142,0,7.5-3.357,7.5-7.5v-72c0-4.143-3.358-7.5-7.5-7.5s-7.5,3.357-7.5,7.5v72
	C193,255.579,196.358,258.937,200.5,258.937z"/>
<path d="M311.5,171.937c-4.142,0-7.5,3.357-7.5,7.5v72c0,4.143,3.358,7.5,7.5,7.5s7.5-3.357,7.5-7.5v-72
	C319,175.294,315.642,171.937,311.5,171.937z"/>
<path d="M244.5,199.937h22c4.142,0,7.5-3.357,7.5-7.5V101.83c0-2.445-0.415-4.854-1.232-7.157l-4.985-14.049
	c-1.87-5.27-6.691-8.675-12.283-8.675s-10.413,3.405-12.283,8.675l-4.985,14.049c-0.817,2.304-1.232,4.712-1.232,7.157v90.606
	C237,196.579,240.358,199.937,244.5,199.937z M252,101.83c0-0.731,0.124-1.452,0.369-2.142l3.131-8.824l3.131,8.824
	c0.245,0.689,0.369,1.41,0.369,2.142v83.106h-7V101.83z"/>
<g>
</g>
<g>
</g>
<g>
</g>
<g>
</g>
<g>
</g>
<g>
</g>
<g>
</g>
<g>
</g>
<g>
</g>
<g>
</g>
<g>
</g>
<g>
</g>
<g>
</g>
<g>
</g>
<g>
</g>
</svg>
